<svg width="24" height="18" viewBox="0 0 24 18" fill="none" xmlns="http://www.w3.org/2000/svg">
<path d="M20.3087 1.72655C20.3017 1.71393 20.2901 1.70421 20.2762 1.69921C18.7285 1.01633 17.0953 0.529195 15.4174 0.249992C15.4023 0.247336 15.3868 0.2493 15.3729 0.255609C15.3591 0.261917 15.3476 0.27225 15.3402 0.285149C15.1177 0.673544 14.9157 1.07249 14.7349 1.48046C12.9253 1.21635 11.0846 1.21635 9.27491 1.48046C9.09345 1.07148 8.88866 0.672436 8.66148 0.285149C8.65364 0.272635 8.64213 0.262624 8.6284 0.25637C8.61467 0.250116 8.59933 0.247897 8.58429 0.249992C6.90347 0.527938 5.26743 1.0151 3.71741 1.69921C3.70382 1.70475 3.69243 1.71433 3.68492 1.72655C0.58929 6.17577 -0.259773 10.5117 0.154602 14.7969C0.155775 14.8077 0.159271 14.8181 0.164866 14.8275C0.170462 14.8369 0.178034 14.8451 0.187102 14.8516C1.9903 16.134 4.00688 17.1128 6.15085 17.7461C6.16626 17.7507 6.18278 17.7505 6.19808 17.7456C6.21338 17.7407 6.2267 17.7313 6.23617 17.7187C6.69618 17.1166 7.10381 16.479 7.45492 15.8125C7.45959 15.8033 7.46224 15.7933 7.46272 15.7831C7.46318 15.7729 7.46146 15.7627 7.45765 15.7532C7.45383 15.7437 7.44801 15.735 7.44055 15.7277C7.43309 15.7204 7.42415 15.7147 7.41429 15.7109C6.77019 15.4736 6.14667 15.1876 5.5496 14.8555C5.53905 14.8492 5.53021 14.8407 5.52382 14.8305C5.51743 14.8203 5.51367 14.8088 5.51288 14.7969C5.51208 14.7851 5.51426 14.7732 5.51924 14.7623C5.52422 14.7514 5.53184 14.7418 5.54148 14.7344C5.66742 14.6445 5.79335 14.5508 5.91117 14.457C5.92156 14.4483 5.93433 14.4425 5.94799 14.4404C5.96166 14.4383 5.97565 14.44 5.98835 14.4453C9.89648 16.1601 14.1296 16.1601 17.993 14.4453C18.0054 14.4395 18.0192 14.4372 18.0328 14.4386C18.0465 14.4399 18.0594 14.445 18.0702 14.4531C18.188 14.5469 18.314 14.6445 18.4399 14.7344C18.4495 14.7418 18.4572 14.7514 18.4622 14.7623C18.4671 14.7732 18.4693 14.7851 18.4685 14.7969C18.4677 14.8088 18.464 14.8203 18.4576 14.8305C18.4512 14.8407 18.4423 14.8492 18.4318 14.8555C17.8363 15.1893 17.2125 15.4741 16.5671 15.707C16.5572 15.7108 16.5483 15.7165 16.5408 15.7238C16.5334 15.7311 16.5276 15.7397 16.5237 15.7493C16.5199 15.7588 16.5182 15.769 16.5187 15.7792C16.5191 15.7894 16.5218 15.7994 16.5265 15.8086C16.8837 16.4718 17.2911 17.1089 17.7452 17.7148C17.7547 17.7274 17.768 17.7368 17.7833 17.7417C17.7986 17.7466 17.8151 17.7468 17.8305 17.7422C19.9807 17.1117 22.0031 16.1328 23.8105 14.8476C23.8198 14.8414 23.8275 14.8332 23.8331 14.8238C23.8387 14.8143 23.8421 14.8038 23.843 14.793C24.3387 9.84374 23.0062 5.54296 20.3087 1.72655ZM8.03992 12.1875C6.86179 12.1875 5.89492 11.1484 5.89492 9.87499C5.89492 8.60155 6.84554 7.55859 8.03992 7.55859C9.24648 7.55859 10.2052 8.60546 10.1849 9.87109C10.1849 11.1484 9.23429 12.1875 8.03992 12.1875ZM15.978 12.1875C14.7999 12.1875 13.833 11.1484 13.833 9.87499C13.833 8.60155 14.7796 7.55859 15.978 7.55859C17.1846 7.55859 18.1434 8.60546 18.123 9.87109C18.123 11.1484 17.1805 12.1875 15.978 12.1875Z" fill="#C2DC54"/>
</svg>
