<svg width="97" height="39" viewBox="0 0 97 39" fill="none" xmlns="http://www.w3.org/2000/svg">
<path fill-rule="evenodd" clip-rule="evenodd" d="M59.3127 0V38.632H47.3451V7.24347C45.4135 9.67897 41.8513 10.2878 40.3116 10.2878V1.2597C42.1064 0.885784 43.4795 0.317637 44.1046 0H36.2192L34.3296 9.55291H37.269V17.0064H32.9649L32.0201 21.6254H35.3794V29.0789H30.6554L28.6608 38.6319H19.6327L21.4173 29.0789H16.1684L14.2788 38.6319H5.25064L7.03527 29.0789H4.09588V21.6254H8.50497L9.34479 17.0064H5.88051V9.55291H10.8145L12.7041 0H0V38.632H63.4008C62.6739 25.7987 62.1633 5.30139 65.6453 0H59.3127ZM91.0335 0C92.3366 1.26716 92.2475 6.17441 92.1904 9.32178C92.1801 9.88559 92.1709 10.3929 92.1709 10.8127H80.9382V6.08871C79.8465 2.14152 75.2694 3.56923 75.2694 6.08871L75.0594 18.6861C76.108 15.121 96.5328 8.41374 92.6045 38.632H97V0H91.0335ZM80.3304 38.632C80.6515 37.0142 80.8049 32.3501 80.3084 28.4491C79.8006 24.4599 75.2274 25.1738 75.0594 28.4491C74.8943 31.6702 75.1216 36.5089 75.2623 38.632H80.3304ZM21.7322 0L19.9476 9.55291H25.0915L27.0861 0H21.7322ZM18.3736 16.9013H23.8325L22.9927 21.6254H17.5338L18.3736 16.9013Z" fill="white"/>
</svg>
