<svg width="40" height="40" viewBox="0 0 40 40" fill="none" xmlns="http://www.w3.org/2000/svg">
<g clip-path="url(#clip0_48_162)">
<path d="M40 20C40 8.9543 31.0457 0 20 0C8.9543 0 0 8.9543 0 20C0 31.0457 8.9543 40 20 40C31.0457 40 40 31.0457 40 20Z" fill="#F2F2F2"/>
<mask id="mask0_48_162" style="mask-type:luminance" maskUnits="userSpaceOnUse" x="10" y="10" width="20" height="20">
<path d="M30 10H10V30H30V10Z" fill="white"/>
</mask>
<g mask="url(#mask0_48_162)">
<path d="M29.6 20.2273C29.6 19.5182 29.5364 18.8364 29.4182 18.1818H20V22.05H25.3818C25.15 23.3 24.4455 24.3591 23.3864 25.0682V27.5773H26.6182C28.5091 25.8364 29.6 23.2727 29.6 20.2273Z" fill="#4285F4"/>
<path d="M20.0009 30C22.7009 30 24.9645 29.1045 26.619 27.5773L23.3872 25.0682C22.4918 25.6682 21.3463 26.0227 20.0009 26.0227C17.3963 26.0227 15.1918 24.2636 14.4054 21.9H11.0645V24.4909C12.71 27.7591 16.0918 30 20.0009 30Z" fill="#34A853"/>
<path d="M14.4045 21.9C14.2045 21.3 14.0909 20.6591 14.0909 20C14.0909 19.3409 14.2045 18.7 14.4045 18.1V15.5091H11.0636C10.3864 16.8591 10 18.3864 10 20C10 21.6136 10.3864 23.1409 11.0636 24.4909L14.4045 21.9Z" fill="#FBBC04"/>
<path d="M20.0009 13.9773C21.469 13.9773 22.7872 14.4818 23.8236 15.4727L26.6918 12.6045C24.96 10.9909 22.6963 10 20.0009 10C16.0918 10 12.71 12.2409 11.0645 15.5091L14.4054 18.1C15.1918 15.7364 17.3963 13.9773 20.0009 13.9773Z" fill="#E94235"/>
</g>
</g>
<defs>
<clipPath id="clip0_48_162">
<rect width="40" height="40" fill="white"/>
</clipPath>
</defs>
</svg>
