<svg width="144" height="165" viewBox="0 0 144 165" fill="none" xmlns="http://www.w3.org/2000/svg">
<path d="M70.5157 44.593C50.5099 44.593 34.3732 60.8478 34.3732 81C34.3732 101.152 50.5099 117.407 70.5157 117.407C90.5215 117.407 106.658 101.152 106.658 81C106.658 60.8478 90.5215 44.593 70.5157 44.593ZM70.5157 104.669C57.5875 104.669 47.0183 94.0546 47.0183 81C47.0183 67.9454 57.556 57.3307 70.5157 57.3307C83.4755 57.3307 94.0131 67.9454 94.0131 81C94.0131 94.0546 83.444 104.669 70.5157 104.669ZM116.567 43.1038C116.567 47.8249 112.792 51.5956 108.137 51.5956C103.45 51.5956 99.7066 47.7933 99.7066 43.1038C99.7066 38.4143 103.481 34.612 108.137 34.612C112.792 34.612 116.567 38.4143 116.567 43.1038ZM140.505 51.7223C139.97 40.3471 137.39 30.271 129.118 21.9693C120.876 13.6676 110.873 11.0694 99.5808 10.4991C87.9422 9.83365 53.0578 9.83365 41.4192 10.4991C30.1581 11.0377 20.1552 13.6359 11.8824 21.9376C3.60954 30.2393 1.06163 40.3154 0.495427 51.6906C-0.165142 63.4144 -0.165142 98.5539 0.495427 110.278C1.03017 121.653 3.60954 131.729 11.8824 140.031C20.1552 148.332 30.1267 150.931 41.4192 151.501C53.0578 152.166 87.9422 152.166 99.5808 151.501C110.873 150.962 120.876 148.364 129.118 140.031C137.359 131.729 139.938 121.653 140.505 110.278C141.165 98.5539 141.165 63.4461 140.505 51.7223ZM125.469 122.857C123.015 129.067 118.265 133.852 112.069 136.355C102.789 140.062 80.7703 139.207 70.5157 139.207C60.2612 139.207 38.2108 140.031 28.9628 136.355C22.7975 133.884 18.0477 129.099 15.5627 122.857C11.8824 113.51 12.7317 91.3296 12.7317 81C12.7317 70.6704 11.9138 48.4587 15.5627 39.143C18.0162 32.9326 22.766 28.1481 28.9628 25.6449C38.2422 21.9376 60.2612 22.7931 70.5157 22.7931C80.7703 22.7931 102.821 21.9693 112.069 25.6449C118.234 28.1164 122.984 32.9009 125.469 39.143C129.149 48.4903 128.3 70.6704 128.3 81C128.3 91.3296 129.149 113.541 125.469 122.857Z" fill="white"/>
</svg>
