<svg width="98" height="89" viewBox="0 0 98 89" fill="none" xmlns="http://www.w3.org/2000/svg">
<path fill-rule="evenodd" clip-rule="evenodd" d="M37.3256 72.4694C36.9045 72.5771 36.9353 72.6037 36.5345 72.2653C36.9874 72.2653 37.2581 72.2653 37.5285 72.2653C37.4897 69.0953 37.6826 65.2837 38.1573 62.0612C38.76 60.3022 38.176 58.2202 38.563 56.5306C38.4752 56.5306 38.2046 56.5306 37.7516 56.5306C36.4119 57.9012 33.9399 58.1871 31.6659 58.7959C27.9904 60.4416 23.787 61.6657 19.2714 62.4694C19.4785 62.8171 19.327 62.7255 19.4945 62.8571C20.9985 64.5137 29.2434 69.3357 31.6456 69.8163C31.6456 70.068 31.6456 70.1361 31.6456 70.0204C31.4428 70.0204 31.0573 70.0204 31.0371 70.0204C29.683 68.9688 27.3252 68.5349 25.3774 67.7551C21.5539 65.9853 18.7874 63.8796 13.6117 62.8571C12.8617 60.3433 10.3136 59.7775 8.31712 58.3673C6.32121 56.9578 4.74786 54.9806 2.86028 53.2653C2.04703 52.2635 0.788706 51.402 0 50.2041C0.0202857 50.2041 0.405713 50.2041 0.60857 50.2041C1.51209 51.0459 2.77305 51.3653 3.6717 52.0408C6.09401 53.4398 8.3443 54.9771 10.5485 56.5306C12.3515 57.8012 14.4704 60.3351 16.8371 60.6327C18.1652 59.9449 20.2449 60.1029 21.7259 59.5918C25.8879 58.3694 30.309 57.3816 33.8973 56.1224C35.7176 55.5755 38.5819 55.6829 38.563 53.6735C39.2051 52.9135 38.7209 51.4659 38.9485 50.2245C39.6152 47.3084 39.0868 43.342 39.7599 40.2041C39.7599 38.9116 39.7599 37.619 39.7599 36.1429C40.0826 34.8245 40.5679 30.2482 39.983 28.3878C40.0425 28.0582 39.3714 27.03 39.557 26.1429C39.6441 25.9971 40.2636 25.9012 40.1859 25.7143C40.436 22.8573 40.5038 19.9998 40.3887 17.1429C40.6827 11.7345 40.8196 5.3551 41.7885 0.612245C42.2883 0.299388 42.2502 0.144694 43.0056 0C44.597 2.8949 44.4769 13.3522 43.6142 17.1633C43.5466 19.7278 43.4789 22.1092 43.4113 24.3061C43.1604 25.7112 42.5522 28.5937 43.0056 29.8163C43.2981 30.9071 44.1868 32.0039 44.4459 32.8571C46.047 35.598 47.311 38.3653 48.503 41.0204C49.4643 42.5249 51.0783 47.3114 52.1544 47.9592C53.063 47.2784 54.0984 47.0767 54.7916 46.5306C56.9455 45.3012 59.11 43.8996 60.8773 42.4694C61.4617 42.3961 62.2011 42.3943 62.2972 42.0408C62.8464 41.5759 62.664 40.6327 62.5001 40.2245C62.7194 39.9655 63.773 38.2867 64.1027 37.5714C64.9754 36.3482 66.4043 35.6151 67.3687 34.3061C67.907 34.6186 67.7482 34.5292 67.9569 34.6939C68.2328 34.8969 68.3233 35.0876 68.3829 35.3061C67.9204 37.2731 65.9961 38.7902 64.7315 40.2245C64.9817 40.2245 65.0494 40.2245 64.9344 40.2245C66.4357 39.2094 69.4575 38.862 69.3972 36.5306C70.7186 34.6498 70.3188 29.4782 72.6429 29.1837C73.0326 29.3478 72.8811 29.2561 73.0486 29.3878C73.0486 29.728 73.0486 30.068 73.0486 30.2245C73.0681 30.6165 73.1592 30.4641 72.8458 30.6327C73.0959 30.6327 73.1637 30.6327 73.0486 30.6327C73.0486 30.7484 73.0486 30.6802 73.0486 30.6122C73.9094 29.9157 74.7382 28.7465 74.8744 27.5714C75.1245 27.5714 75.1922 27.5714 75.0772 27.5714C75.0772 28.0271 75.0772 28.2994 75.0772 28.3878C75.0468 28.8649 74.9437 29.3718 74.6715 29.7959C74.9216 29.7959 74.9894 29.7959 74.8744 29.7959C74.8744 29.6598 74.8744 29.5239 74.8744 29.3878C75.7558 28.6049 75.8657 27.4175 76.7001 26.9388C76.7001 27.0067 76.7001 27.0749 76.7001 27.1429C77.0776 27.4322 77.0806 27.8108 76.9029 28.3673C76.7475 29.5237 76.4094 30.6804 76.0712 31.6531C75.8162 31.9694 75.6511 32.059 75.2801 32.0612C75.0149 32.0606 74.6228 31.8461 74.2455 31.6327C73.9075 32.8569 73.5692 34.0818 73.0486 35.3061C73.3665 35.3061 73.5016 35.3061 73.4544 35.3061C76.0566 32.9184 79.8451 31.6469 82.7655 29.7959C86.3928 27.4967 90.1501 25.3867 93.74 23.0612C95.2227 22.2598 96.5743 21.0867 98 20.6122C98 20.6802 98 20.7484 98 20.8163C93.8141 23.5486 90.2878 27.792 85.4229 30.2041C85.9607 30.9273 86.3828 31.3745 86.6198 32.0612C86.5522 32.0612 86.4844 32.0612 86.4169 32.0612C85.9696 31.5443 85.4073 31.1588 84.3883 31.0204C83.611 32.1233 82.3918 34.3147 80.7369 34.3061C80.4134 34.0306 80.4046 34.0618 80.1283 33.898C77.9442 34.759 75.902 36.6071 74.0426 37.5714C73.3172 38.2029 72.4587 38.2457 71.8112 38.7755C70.9896 39.4478 71.3459 40.5547 70.1884 41.0204C69.8255 40.6861 69.566 40.5345 68.7887 40.2245C67.7247 41.5555 66.0107 41.9386 64.3258 42.8571C62.2465 44.24 59.7812 45.6926 57.4084 46.9388C56.1223 47.6143 53.3849 48.3141 52.5601 49.5918C53.8454 50.841 54.2554 52.6502 54.7916 54.2857C56.0326 56.6939 57.3686 59.202 58.443 61.449C61.6108 67.4051 64.4769 73.282 66.963 79.2041C68.5221 82.5373 70.6779 85.6239 71.4258 89C71.5408 89 71.4731 89 71.2229 89C69.78 86.2827 67.6817 83.2906 65.9284 80.2245C61.9362 73.8447 58.9227 66.7251 54.7916 60.0204C53.6618 58.0371 52.6496 55.639 51.5256 53.2857C51.0255 52.5045 50.8632 51.1041 49.9027 50.6122C47.6421 53.2578 41.0768 52.7476 41.1799 57.3673C40.6391 62.8565 40.0978 68.1639 39.557 73.2857C41.7217 73.8965 43.8696 75.0369 45.8456 75.5306C51.0075 77.4837 56.174 78.7267 60.8773 80.4286C62.9876 81.3561 66.9999 81.8335 66.963 84.102C66.7214 84.5145 66.7739 84.5784 66.1312 84.5102C64.2745 83.0967 59.8693 82.2755 57.4084 81.0408C53.1563 79.4086 48.7973 77.7816 44.243 75.9184C42.9129 75.2737 41.3596 74.1782 39.557 73.6939C39.557 73.9455 39.557 74.0137 39.557 73.898C39.4895 73.898 39.4217 73.898 39.3542 73.898C39.4388 77.1186 38.8227 86.3233 36.5345 86.551C36.5099 86.5706 36.6615 86.6622 36.1288 86.3469C36.1288 85.8504 36.1288 85.17 36.1288 84.3061C36.6665 83.9114 36.3324 82.8873 36.3316 81.8571C37.1274 79.1843 37.3266 75.8582 37.3256 72.4694ZM75.4829 23.4694C75.6805 22.9527 75.6898 22.711 75.8684 22.449C76.284 20.9978 77.9655 18.6565 79.3372 18.3673C79.7595 18.74 79.9644 18.939 80.3312 19.1837C80.3312 19.2516 80.3312 19.3198 80.3312 19.3878C80.2636 19.3878 80.1959 19.3878 80.1283 19.3878C79.2439 21.1333 77.5612 22.1276 76.2741 23.4694C76.0712 23.4694 75.6858 23.4694 75.4829 23.4694ZM87.2486 33.4898C87.5943 33.8818 87.5032 33.7294 87.4515 33.898C87.5665 33.898 87.4987 33.898 87.2486 33.898C87.2486 33.9455 87.2486 33.8096 87.2486 33.4898ZM58.8487 33.898C59.3017 33.898 59.5723 33.898 59.8427 33.898C59.9102 34.102 59.978 34.4898 60.0455 34.6939C60.577 35.3447 61.2964 38.4161 60.4715 39.3878C60.5087 38.0624 58.2401 35.102 58.2401 35.102C58.443 34.762 58.8284 34.4216 58.8487 33.898ZM87.4515 33.898C87.7971 34.29 87.706 34.1376 87.6543 34.3061C87.7693 34.3061 87.7016 34.3061 87.4515 34.3061C87.4515 34.3537 87.4515 34.2178 87.4515 33.898ZM87.6543 34.3061C88 34.6982 87.9089 34.5457 87.8572 34.7143C87.9722 34.7143 87.9044 34.7143 87.6543 34.7143C87.6543 34.7618 87.6543 34.6259 87.6543 34.3061ZM41.3827 53.2857C42.7538 53.3037 49.2418 49.962 49.497 48.7959C48.4517 47.8239 47.9482 45.98 47.2656 44.3061C45.8892 41.4855 43.6491 38.5261 42.6202 35.102C42.7352 35.102 42.6674 35.102 42.4173 35.102C42.4173 35.7822 42.4173 36.4627 42.4173 36.9592C42.1942 42.5845 41.6059 48.0278 41.3827 53.2857ZM57.4084 36.5306C57.5715 36.739 57.4804 36.5865 57.6113 36.9388C57.5437 36.9388 57.476 36.9388 57.4084 36.9388C57.4084 36.8027 57.4084 36.6667 57.4084 36.5306ZM57.023 36.9388C57.7271 37.8657 55.5074 45.8706 54.1627 46.1224C53.9556 45.9584 54.1071 46.05 53.757 45.7347C53.6894 45.7143 53.6217 45.3265 53.5541 45.1224C54.7711 42.5173 55.9886 39.7276 57.023 36.9388ZM31.6456 70.0204C31.7809 70.0204 31.916 70.0204 31.8688 70.0204C31.8688 70.272 31.8688 70.3402 31.8688 70.2245C31.6955 70.2794 31.8544 70.3688 31.6456 70.0204ZM31.8688 70.2245C32.1866 70.2245 32.3217 70.2245 32.2745 70.2245C32.2745 70.4761 32.2745 70.5443 32.2745 70.4286C32.1012 70.4835 32.2601 70.5729 31.8688 70.2245ZM32.2745 70.4286C32.5924 70.4286 32.7275 70.4286 32.8628 70.4286C32.8628 70.6802 32.8628 70.7484 32.8628 70.6327C32.507 70.6876 32.6658 70.7769 32.2745 70.4286ZM33.4713 71.0204C33.6066 71.0204 33.7417 71.0204 33.6945 71.0204C33.6945 71.0884 33.6945 71.1565 33.6945 71.0408C33.5212 71.0957 33.6801 71.1851 33.4713 71.0204ZM33.6945 71.0408C34.0123 71.0408 34.1475 71.0408 34.1002 71.0408C34.1002 71.2924 34.1002 71.3606 34.1002 71.4286C33.9269 71.2998 34.0858 71.3892 33.6945 71.0408ZM34.8913 71.449C35.0266 71.449 35.1617 71.449 35.297 71.449C35.297 71.7006 35.297 71.7688 35.297 71.8367C34.9412 71.708 35.1001 71.7973 34.8913 71.449ZM35.297 71.8367C35.4323 71.8367 35.5675 71.8367 35.7028 71.8367C35.7028 71.9047 35.7028 71.9729 35.7028 71.8571C35.3469 71.912 35.5058 72.0014 35.297 71.8367ZM36.1288 72.0612C36.4466 72.0612 36.5817 72.0612 36.5345 72.0612C36.5345 72.3129 36.5345 72.381 36.5345 72.2653C36.3612 72.3202 36.5201 72.4096 36.1288 72.0612Z" fill="white"/>
</svg>
