<svg width="462" height="184" viewBox="0 0 462 184" fill="none" xmlns="http://www.w3.org/2000/svg">
<path fill-rule="evenodd" clip-rule="evenodd" d="M282.5 0V184H301.971C298.509 122.876 296.077 25.2496 312.661 0H282.5ZM210.066 0C207.089 1.51284 200.549 4.219 192 6V49C199.333 49 216.3 46.1 225.5 34.5V184H136.5L146 138.5H168.5V103H152.5L157 81H177.5V45.5H163.5L172.5 0H210.066ZM129 0H103.5L95 45.5H119.5L129 0ZM60.5 0H0V184H25L33.5 138.5H19.5V103H40.5L44.5 81H28V45.5H51.5L60.5 0ZM68 184H93.5L102 138.5H77L68 184ZM433.582 0C439.789 6.03501 439.365 29.4078 439.093 44.3985V44.3988V44.3992V44.3996V44.3999C439.044 47.0848 439 49.5007 439 51.5H385.5V29C380.3 10.2 358.5 17 358.5 29L357.5 89C362.494 72.0196 459.775 40.0739 441.065 184H462V0H433.582ZM382.605 184C384.135 176.294 384.865 154.08 382.5 135.5C380.082 116.5 358.3 119.9 357.5 135.5C356.713 150.842 357.796 173.888 358.466 184H382.605ZM87.5 80.5H113.5L109.5 103H83.5L87.5 80.5Z" fill="#C2DC54"/>
<g clip-path="url(#clip0_85_222)">
<path fill-rule="evenodd" clip-rule="evenodd" d="M400.091 172.755C399.808 172.828 399.829 172.845 399.559 172.618C399.864 172.618 400.045 172.618 400.227 172.618C400.201 170.485 400.331 167.921 400.65 165.753C401.055 164.569 400.663 163.169 400.923 162.032C400.864 162.032 400.682 162.032 400.377 162.032C399.477 162.954 397.815 163.146 396.286 163.556C393.816 164.663 390.99 165.487 387.955 166.027C388.094 166.261 387.992 166.2 388.105 166.288C389.116 167.403 394.658 170.647 396.273 170.97C396.273 171.14 396.273 171.185 396.273 171.108C396.136 171.108 395.877 171.108 395.864 171.108C394.953 170.4 393.368 170.108 392.059 169.584C389.489 168.393 387.629 166.976 384.15 166.288C383.646 164.597 381.933 164.216 380.591 163.268C379.249 162.319 378.192 160.989 376.923 159.835C376.376 159.161 375.53 158.582 375 157.776C375.014 157.776 375.273 157.776 375.409 157.776C376.016 158.342 376.864 158.557 377.468 159.011C379.097 159.953 380.609 160.987 382.091 162.032C383.303 162.887 384.727 164.592 386.318 164.792C387.211 164.329 388.609 164.435 389.605 164.092C392.402 163.269 395.374 162.605 397.786 161.757C399.01 161.389 400.935 161.462 400.923 160.11C401.354 159.599 401.029 158.625 401.182 157.789C401.63 155.828 401.275 153.159 401.727 151.048C401.727 150.179 401.727 149.309 401.727 148.316C401.944 147.429 402.27 144.35 401.877 143.098C401.917 142.877 401.466 142.185 401.591 141.588C401.649 141.49 402.066 141.426 402.014 141.3C402.182 139.378 402.227 137.455 402.15 135.533C402.348 131.895 402.44 127.603 403.091 124.412C403.427 124.201 403.401 124.097 403.909 124C404.979 125.948 404.898 132.983 404.318 135.547C404.273 137.272 404.227 138.874 404.182 140.352C404.013 141.298 403.604 143.237 403.909 144.059C404.106 144.793 404.703 145.531 404.877 146.105C405.954 147.949 406.803 149.811 407.605 151.597C408.251 152.609 409.336 155.83 410.059 156.265C410.67 155.807 411.366 155.672 411.832 155.304C413.28 154.477 414.735 153.534 415.923 152.572C416.316 152.523 416.813 152.522 416.877 152.284C417.246 151.971 417.124 151.336 417.014 151.062C417.161 150.888 417.869 149.758 418.091 149.277C418.678 148.454 419.638 147.961 420.286 147.08C420.648 147.29 420.542 147.23 420.682 147.341C420.867 147.478 420.928 147.606 420.968 147.753C420.657 149.076 419.364 150.097 418.514 151.062C418.682 151.062 418.727 151.062 418.65 151.062C419.659 150.379 421.691 150.145 421.65 148.577C422.538 147.311 422.27 143.832 423.832 143.634C424.094 143.744 423.992 143.683 424.105 143.771C424.105 144 424.105 144.229 424.105 144.334C424.118 144.598 424.179 144.495 423.968 144.609C424.136 144.609 424.182 144.609 424.105 144.609C424.105 144.687 424.105 144.641 424.105 144.595C424.683 144.126 425.24 143.34 425.332 142.549C425.5 142.549 425.546 142.549 425.468 142.549C425.468 142.856 425.468 143.039 425.468 143.098C425.448 143.419 425.378 143.76 425.195 144.046C425.364 144.046 425.409 144.046 425.332 144.046C425.332 143.954 425.332 143.863 425.332 143.771C425.924 143.244 425.998 142.446 426.559 142.124C426.559 142.169 426.559 142.215 426.559 142.261C426.813 142.456 426.815 142.71 426.695 143.085C426.591 143.863 426.364 144.641 426.136 145.295C425.965 145.508 425.854 145.568 425.605 145.57C425.426 145.569 425.163 145.425 424.909 145.281C424.682 146.105 424.454 146.929 424.105 147.753C424.318 147.753 424.409 147.753 424.377 147.753C426.127 146.146 428.673 145.291 430.636 144.046C433.075 142.499 435.6 141.079 438.014 139.515C439.01 138.976 439.919 138.186 440.877 137.867C440.877 137.913 440.877 137.959 440.877 138.005C438.063 139.843 435.693 142.698 432.423 144.32C432.784 144.807 433.068 145.108 433.227 145.57C433.182 145.57 433.136 145.57 433.091 145.57C432.79 145.222 432.412 144.963 431.727 144.87C431.205 145.612 430.385 147.086 429.273 147.08C429.055 146.895 429.049 146.916 428.864 146.805C427.395 147.385 426.023 148.628 424.773 149.277C424.285 149.702 423.708 149.731 423.273 150.087C422.72 150.539 422.96 151.284 422.182 151.597C421.938 151.372 421.763 151.27 421.241 151.062C420.526 151.957 419.374 152.215 418.241 152.833C416.843 153.763 415.186 154.741 413.591 155.579C412.726 156.033 410.886 156.504 410.332 157.364C411.196 158.204 411.471 159.421 411.832 160.522C412.666 162.142 413.564 163.829 414.286 165.341C416.416 169.348 418.343 173.302 420.014 177.286C421.062 179.529 422.511 181.605 423.014 183.876C423.091 183.876 423.045 183.876 422.877 183.876C421.907 182.048 420.497 180.035 419.318 177.973C416.635 173.68 414.609 168.891 411.832 164.38C411.072 163.046 410.392 161.432 409.636 159.849C409.3 159.323 409.191 158.381 408.545 158.05C407.026 159.83 402.613 159.487 402.682 162.595C402.318 166.288 401.954 169.859 401.591 173.304C403.046 173.715 404.49 174.483 405.818 174.815C409.288 176.129 412.761 176.965 415.923 178.11C417.341 178.734 420.038 179.055 420.014 180.581C419.851 180.859 419.887 180.902 419.455 180.856C418.206 179.905 415.245 179.352 413.591 178.522C410.733 177.424 407.802 176.329 404.741 175.076C403.847 174.642 402.803 173.905 401.591 173.579C401.591 173.748 401.591 173.794 401.591 173.716C401.546 173.716 401.5 173.716 401.455 173.716C401.511 175.883 401.097 182.076 399.559 182.229C399.543 182.242 399.644 182.304 399.286 182.092C399.286 181.757 399.286 181.3 399.286 180.719C399.648 180.453 399.423 179.764 399.423 179.071C399.958 177.273 400.092 175.035 400.091 172.755ZM425.741 139.789C425.874 139.442 425.88 139.279 426 139.103C426.279 138.127 427.41 136.552 428.332 136.357C428.616 136.608 428.753 136.742 429 136.906C429 136.952 429 136.998 429 137.043C428.955 137.043 428.909 137.043 428.864 137.043C428.269 138.218 427.138 138.887 426.273 139.789C426.136 139.789 425.877 139.789 425.741 139.789ZM433.65 146.531C433.882 146.795 433.821 146.692 433.786 146.805C433.864 146.805 433.818 146.805 433.65 146.805C433.65 146.837 433.65 146.746 433.65 146.531ZM414.559 146.805C414.864 146.805 415.046 146.805 415.227 146.805C415.273 146.943 415.318 147.204 415.364 147.341C415.721 147.779 416.204 149.845 415.65 150.499C415.675 149.607 414.15 147.616 414.15 147.616C414.286 147.387 414.545 147.158 414.559 146.805ZM433.786 146.805C434.019 147.069 433.958 146.967 433.923 147.08C434 147.08 433.955 147.08 433.786 147.08C433.786 147.112 433.786 147.021 433.786 146.805ZM433.923 147.08C434.155 147.344 434.094 147.241 434.059 147.355C434.136 147.355 434.091 147.355 433.923 147.355C433.923 147.387 433.923 147.295 433.923 147.08ZM402.818 159.849C403.74 159.861 408.101 157.613 408.273 156.828C407.57 156.174 407.232 154.934 406.773 153.808C405.848 151.91 404.342 149.919 403.65 147.616C403.727 147.616 403.682 147.616 403.514 147.616C403.514 148.073 403.514 148.531 403.514 148.865C403.364 152.65 402.968 156.312 402.818 159.849ZM413.591 148.577C413.701 148.717 413.639 148.614 413.727 148.851C413.682 148.851 413.636 148.851 413.591 148.851C413.591 148.76 413.591 148.668 413.591 148.577ZM413.332 148.851C413.805 149.475 412.313 154.86 411.409 155.03C411.27 154.919 411.372 154.981 411.136 154.769C411.091 154.755 411.045 154.494 411 154.357C411.818 152.604 412.637 150.727 413.332 148.851ZM396.273 171.108C396.364 171.108 396.455 171.108 396.423 171.108C396.423 171.277 396.423 171.323 396.423 171.245C396.306 171.282 396.413 171.342 396.273 171.108ZM396.423 171.245C396.636 171.245 396.727 171.245 396.695 171.245C396.695 171.414 396.695 171.46 396.695 171.382C396.579 171.419 396.686 171.479 396.423 171.245ZM396.695 171.382C396.909 171.382 397 171.382 397.091 171.382C397.091 171.551 397.091 171.597 397.091 171.519C396.852 171.556 396.959 171.617 396.695 171.382ZM397.5 171.78C397.591 171.78 397.682 171.78 397.65 171.78C397.65 171.826 397.65 171.872 397.65 171.794C397.534 171.831 397.64 171.891 397.5 171.78ZM397.65 171.794C397.864 171.794 397.955 171.794 397.923 171.794C397.923 171.963 397.923 172.009 397.923 172.055C397.806 171.968 397.913 172.028 397.65 171.794ZM398.455 172.069C398.545 172.069 398.636 172.069 398.727 172.069C398.727 172.238 398.727 172.284 398.727 172.33C398.488 172.243 398.595 172.303 398.455 172.069ZM398.727 172.33C398.818 172.33 398.909 172.33 399 172.33C399 172.375 399 172.421 399 172.343C398.761 172.38 398.868 172.44 398.727 172.33ZM399.286 172.481C399.5 172.481 399.591 172.481 399.559 172.481C399.559 172.65 399.559 172.696 399.559 172.618C399.443 172.655 399.549 172.715 399.286 172.481Z" fill="#C2DC54"/>
</g>
<defs>
<clipPath id="clip0_85_222">
<rect width="66" height="60" fill="white" transform="translate(375 124)"/>
</clipPath>
</defs>
</svg>
