<svg width="546" height="493" viewBox="0 0 546 493" fill="none" xmlns="http://www.w3.org/2000/svg">
<path fill-rule="evenodd" clip-rule="evenodd" d="M207.957 401.432C205.611 402.028 205.782 402.175 203.549 400.301C206.073 400.301 207.581 400.301 209.087 400.301C208.871 382.741 209.946 361.628 212.591 343.777C215.949 334.034 212.695 322.501 214.851 313.141C214.362 313.141 212.854 313.141 210.33 313.141C202.867 320.734 189.094 322.318 176.424 325.69C155.946 334.806 132.527 341.586 107.369 346.038C108.523 347.965 107.679 347.457 108.612 348.186C116.992 357.362 162.927 384.073 176.311 386.735C176.311 388.129 176.311 388.507 176.311 387.866C175.181 387.866 173.034 387.866 172.921 387.866C165.377 382.041 152.24 379.637 141.388 375.318C120.086 365.514 104.672 353.85 75.8365 348.186C71.6581 334.261 57.4617 331.127 46.3382 323.316C35.2182 315.508 26.4523 304.556 15.9358 295.054C11.4049 289.504 4.39422 284.733 0 278.097C0.11302 278.097 2.2604 278.097 3.3906 278.097C8.42452 282.76 15.4498 284.529 20.4566 288.271C33.9524 296.02 46.4897 304.536 58.7704 313.141C68.8157 320.18 80.6206 334.216 93.8067 335.864C101.206 332.054 112.793 332.929 121.044 330.099C144.233 323.327 168.864 317.856 188.857 310.881C198.998 307.851 214.956 308.445 214.851 297.315C218.428 293.105 215.73 285.087 216.999 278.21C220.714 262.056 217.769 240.086 221.519 222.704C221.519 215.544 221.519 208.384 221.519 200.207C223.317 192.904 226.021 167.554 222.763 157.249C223.094 155.423 219.355 149.728 220.389 144.814C220.874 144.007 224.326 143.475 223.893 142.44C225.286 126.614 225.664 110.785 225.023 94.9599C226.661 65.0012 227.424 29.6637 232.821 3.39142C235.606 1.65841 235.394 0.801507 239.603 0C248.469 16.0358 247.8 73.9624 242.993 95.0729C242.617 109.278 242.239 122.47 241.863 134.64C240.465 142.423 237.077 158.39 239.603 165.162C241.232 171.205 246.184 177.28 247.627 182.006C256.548 197.189 263.59 212.518 270.231 227.225C275.587 235.559 284.579 262.073 290.575 265.662C295.637 261.89 301.405 260.773 305.267 257.748C317.268 250.938 329.327 243.174 339.173 235.252C342.429 234.846 346.549 234.836 347.085 232.878C350.144 230.303 349.128 225.078 348.215 222.817C349.437 221.382 355.307 212.083 357.143 208.12C362.006 201.344 369.967 197.284 375.34 190.033C378.339 191.764 377.454 191.268 378.617 192.181C380.154 193.306 380.658 194.361 380.991 195.572C378.414 206.468 367.693 214.872 360.647 222.817C362.041 222.817 362.418 222.817 361.777 222.817C370.142 217.194 386.977 215.27 386.642 202.355C394.004 191.937 391.776 163.289 404.725 161.658C406.896 162.567 406.052 162.059 406.985 162.788C406.985 164.673 406.985 166.556 406.985 167.423C407.094 169.595 407.601 168.75 405.855 169.684C407.249 169.684 407.626 169.684 406.985 169.684C406.985 170.325 406.985 169.948 406.985 169.571C411.781 165.713 416.399 159.236 417.157 152.727C418.551 152.727 418.928 152.727 418.287 152.727C418.287 155.251 418.287 156.76 418.287 157.249C418.118 159.892 417.544 162.7 416.027 165.049C417.42 165.049 417.798 165.049 417.157 165.049C417.157 164.295 417.157 163.542 417.157 162.788C422.068 158.452 422.68 151.875 427.329 149.223C427.329 149.599 427.329 149.977 427.329 150.353C429.432 151.956 429.449 154.053 428.459 157.136C427.593 163.541 425.709 169.949 423.825 175.337C422.405 177.089 421.485 177.585 419.418 177.598C417.94 177.594 415.756 176.406 413.653 175.224C411.771 182.005 409.885 188.79 406.985 195.572C408.756 195.572 409.509 195.572 409.246 195.572C423.744 182.346 444.852 175.303 461.122 165.049C481.331 152.313 502.265 140.625 522.266 127.744C530.526 123.304 538.057 116.806 546 114.178C546 114.554 546 114.932 546 115.308C522.678 130.443 503.032 153.949 475.928 167.31C478.924 171.317 481.276 173.794 482.596 177.598C482.219 177.598 481.842 177.598 481.466 177.598C478.973 174.734 475.841 172.599 470.164 171.832C465.833 177.941 459.04 190.08 449.82 190.033C448.017 188.507 447.969 188.68 446.429 187.772C434.26 192.541 422.883 202.779 412.523 208.12C408.482 211.618 403.699 211.855 400.091 214.79C395.514 218.514 397.498 224.646 391.049 227.225C389.028 225.374 387.582 224.534 383.251 222.817C377.323 230.19 367.774 232.311 358.387 237.4C346.802 245.06 333.067 253.107 319.847 260.009C312.681 263.751 297.43 267.627 292.835 274.705C299.996 281.625 302.28 291.647 305.267 300.706C312.182 314.046 319.625 327.939 325.611 340.386C343.26 373.379 359.229 405.933 373.079 438.737C381.766 457.201 393.777 474.299 397.944 493C398.585 493 398.207 493 396.813 493C388.774 477.948 377.084 461.374 367.315 444.39C345.073 409.05 328.284 369.612 305.267 332.473C298.973 321.487 293.333 308.202 287.071 295.167C284.285 290.839 283.381 283.082 278.029 280.358C265.434 295.012 228.857 292.186 229.431 317.776C226.418 348.183 223.402 377.582 220.389 405.953C232.45 409.337 244.416 415.654 255.425 418.389C284.184 429.207 312.97 436.093 339.173 445.52C350.931 450.658 373.285 453.302 373.079 465.869C371.733 468.153 372.026 468.507 368.445 468.13C358.101 460.3 333.557 455.751 319.847 448.911C296.157 439.87 271.871 430.858 246.497 420.537C239.086 416.965 230.432 410.897 220.389 408.214C220.389 409.608 220.389 409.986 220.389 409.345C220.013 409.345 219.635 409.345 219.259 409.345C219.73 427.185 216.298 478.173 203.549 479.434C203.412 479.543 204.257 480.05 201.289 478.304C201.289 475.553 201.289 471.784 201.289 466.999C204.285 464.813 202.423 459.14 202.419 453.433C206.853 438.628 207.963 420.203 207.957 401.432ZM420.548 130.005C421.649 127.142 421.701 125.804 422.695 124.352C425.011 116.313 434.379 103.345 442.022 101.743C444.375 103.807 445.516 104.909 447.56 106.265C447.56 106.641 447.56 107.019 447.56 107.395C447.183 107.395 446.806 107.395 446.429 107.395C441.502 117.064 432.127 122.572 424.955 130.005C423.825 130.005 421.678 130.005 420.548 130.005ZM486.099 185.511C488.025 187.683 487.518 186.838 487.23 187.772C487.87 187.772 487.493 187.772 486.099 187.772C486.099 188.035 486.099 187.282 486.099 185.511ZM327.871 187.772C330.395 187.772 331.903 187.772 333.409 187.772C333.786 188.902 334.163 191.05 334.539 192.181C337.501 195.786 341.508 212.799 336.913 218.182C337.12 210.84 324.481 194.442 324.481 194.442C325.611 192.558 327.758 190.673 327.871 187.772ZM487.23 187.772C489.155 189.943 488.648 189.099 488.36 190.033C489.001 190.033 488.623 190.033 487.23 190.033C487.23 190.296 487.23 189.543 487.23 187.772ZM488.36 190.033C490.286 192.204 489.778 191.36 489.49 192.294C490.131 192.294 489.753 192.294 488.36 192.294C488.36 192.557 488.36 191.804 488.36 190.033ZM230.561 295.167C238.2 295.266 274.347 276.756 275.769 270.297C269.945 264.912 267.14 254.698 263.337 245.426C255.668 229.802 243.188 213.409 237.455 194.442C238.096 194.442 237.719 194.442 236.325 194.442C236.325 198.21 236.325 201.979 236.325 204.729C235.082 235.889 231.804 266.041 230.561 295.167ZM319.847 202.355C320.755 203.509 320.248 202.665 320.977 204.616C320.601 204.616 320.223 204.616 319.847 204.616C319.847 203.862 319.847 203.109 319.847 202.355ZM317.699 204.616C321.622 209.751 309.256 254.092 301.764 255.487C300.61 254.578 301.454 255.086 299.503 253.339C299.127 253.226 298.749 251.078 298.373 249.948C305.153 235.517 311.937 220.064 317.699 204.616ZM176.311 387.866C177.065 387.866 177.818 387.866 177.555 387.866C177.555 389.26 177.555 389.637 177.555 388.996C176.589 389.3 177.474 389.796 176.311 387.866ZM177.555 388.996C179.326 388.996 180.078 388.996 179.815 388.996C179.815 390.39 179.815 390.768 179.815 390.127C178.85 390.431 179.735 390.926 177.555 388.996ZM179.815 390.127C181.586 390.127 182.339 390.127 183.093 390.127C183.093 391.521 183.093 391.898 183.093 391.257C181.11 391.561 181.995 392.057 179.815 390.127ZM186.483 393.405C187.237 393.405 187.99 393.405 187.726 393.405C187.726 393.782 187.726 394.159 187.726 393.518C186.761 393.822 187.646 394.317 186.483 393.405ZM187.726 393.518C189.497 393.518 190.25 393.518 189.987 393.518C189.987 394.912 189.987 395.29 189.987 395.666C189.022 394.953 189.907 395.448 187.726 393.518ZM194.395 395.779C195.148 395.779 195.901 395.779 196.655 395.779C196.655 397.173 196.655 397.551 196.655 397.927C194.673 397.214 195.558 397.709 194.395 395.779ZM196.655 397.927C197.409 397.927 198.161 397.927 198.915 397.927C198.915 398.304 198.915 398.681 198.915 398.04C196.933 398.344 197.818 398.839 196.655 397.927ZM201.289 399.171C203.06 399.171 203.812 399.171 203.549 399.171C203.549 400.564 203.549 400.942 203.549 400.301C202.584 400.605 203.469 401.1 201.289 399.171Z" fill="black"/>
</svg>
