<svg width="122" height="140" viewBox="0 0 122 140" fill="none" xmlns="http://www.w3.org/2000/svg">
<g clip-path="url(#clip0_116_468)">
<path d="M122 57.3945C110.007 57.4203 98.3088 53.6612 88.559 46.6484V95.5391C88.5562 104.594 85.8001 113.432 80.6593 120.871C75.5184 128.311 68.238 133.997 59.7917 137.169C51.3453 140.341 42.1357 140.848 33.3946 138.622C24.6535 136.396 16.7976 131.543 10.8776 124.713C4.95756 117.883 1.25566 109.4 0.266969 100.4C-0.721719 91.3997 1.04995 82.3109 5.34502 74.3491C9.64009 66.3874 16.2538 59.9322 24.3016 55.8468C32.3494 51.7615 41.4477 50.2409 50.3795 51.4883V76.0703C46.2954 74.7794 41.9095 74.8172 37.8481 76.1782C33.7866 77.5393 30.2573 80.1541 27.764 83.6492C25.2707 87.1443 23.941 91.3411 23.9646 95.6402C23.9883 99.9394 25.3642 104.121 27.8958 107.588C30.4274 111.056 33.9853 113.631 38.0615 114.947C42.1377 116.263 46.5237 116.252 50.5934 114.916C54.663 113.58 58.2081 110.986 60.7226 107.507C63.2371 104.027 64.5923 99.8383 64.5947 95.5391V0H88.559C88.5455 2.0351 88.7187 4.06712 89.0764 6.07031C89.9098 10.5356 91.6413 14.7833 94.165 18.5538C96.6887 22.3244 99.9517 25.5386 103.755 28C109.168 31.5898 115.513 33.5012 122 33.4961V57.3945Z" fill="white"/>
</g>
<defs>
<clipPath id="clip0_116_468">
<rect width="122" height="140" fill="white"/>
</clipPath>
</defs>
</svg>
