<svg width="20" height="22" viewBox="0 0 20 22" fill="none" xmlns="http://www.w3.org/2000/svg">
<path d="M20 9.01914C18.0339 9.02319 16.1162 8.43248 14.5179 7.33047V15.0133C14.5174 16.4362 14.0656 17.825 13.2228 18.9941C12.3801 20.1631 11.1866 21.0566 9.80191 21.5551C8.41726 22.0536 6.90749 22.1332 5.47453 21.7834C4.04156 21.4337 2.75371 20.6711 1.78321 19.5978C0.812715 18.5244 0.205845 17.1914 0.0437654 15.7771C-0.118315 14.3628 0.172122 12.9346 0.876232 11.6834C1.58034 10.4323 2.66456 9.41791 3.98387 8.77593C5.30318 8.13395 6.7947 7.895 8.25893 8.09101V11.9539C7.58941 11.751 6.87041 11.757 6.2046 11.9709C5.53879 12.1847 4.96021 12.5956 4.55147 13.1449C4.14274 13.6941 3.92475 14.3536 3.92863 15.0292C3.93251 15.7048 4.15806 16.3619 4.57308 16.9067C4.9881 17.4516 5.57136 17.8563 6.23959 18.0631C6.90781 18.2699 7.62684 18.2682 8.29399 18.0582C8.96115 17.8482 9.54232 17.4407 9.95452 16.8939C10.3667 16.3471 10.5889 15.6889 10.5893 15.0133V0H14.5179C14.5156 0.319801 14.544 0.639119 14.6027 0.953906C14.7393 1.65559 15.0232 2.32308 15.4369 2.9156C15.8506 3.50811 16.3855 4.0132 17.0089 4.4C17.8963 4.96411 18.9365 5.26447 20 5.26367V9.01914Z" fill="#C2DC54"/>
</svg>
