<svg width="42" height="42" viewBox="0 0 42 42" fill="none" xmlns="http://www.w3.org/2000/svg">
<circle cx="21" cy="21" r="21" fill="#D9D9D9"/>
<g clip-path="url(#clip0_437_459)">
<path d="M21 20C22.8186 20 24.5628 19.2625 25.8487 17.9497C27.1347 16.637 27.8571 14.8565 27.8571 13C27.8571 11.1435 27.1347 9.36301 25.8487 8.05025C24.5628 6.7375 22.8186 6 21 6C19.1814 6 17.4372 6.7375 16.1513 8.05025C14.8653 9.36301 14.1429 11.1435 14.1429 13C14.1429 14.8565 14.8653 16.637 16.1513 17.9497C17.4372 19.2625 19.1814 20 21 20ZM18.5518 22.625C13.275 22.625 9 26.9891 9 32.3758C9 33.2727 9.7125 34 10.5911 34H31.4089C32.2875 34 33 33.2727 33 32.3758C33 26.9891 28.725 22.625 23.4482 22.625H18.5518Z" fill="#C5C5C5"/>
</g>
<defs>
<clipPath id="clip0_437_459">
<rect width="24" height="28" fill="white" transform="translate(9 6)"/>
</clipPath>
</defs>
</svg>
