<svg width="194" height="173" viewBox="0 0 194 173" fill="none" xmlns="http://www.w3.org/2000/svg">
<path d="M185.141 41.9322C183.019 33.9242 176.788 27.6395 168.873 25.5107C154.526 21.625 96.9992 21.625 96.9992 21.625C96.9992 21.625 39.4728 21.625 25.1249 25.5107C17.2099 27.6395 10.979 33.9242 8.85716 41.9322C5.01758 56.4277 5.01758 86.6352 5.01758 86.6352C5.01758 86.6352 5.01758 116.843 8.85716 131.338C10.979 139.346 17.2099 145.361 25.1249 147.489C39.4728 151.375 96.9992 151.375 96.9992 151.375C96.9992 151.375 154.526 151.375 168.873 147.489C176.788 145.361 183.019 139.312 185.141 131.338C188.981 116.843 188.981 86.6352 188.981 86.6352C188.981 86.6352 188.981 56.4277 185.141 41.9322ZM78.2054 114.072V59.1984L126.268 86.6352L78.2054 114.072Z" fill="white"/>
</svg>
