<svg width="23" height="15" viewBox="0 0 23 15" fill="none" xmlns="http://www.w3.org/2000/svg">
<path d="M21.9506 2.09004C21.699 1.11797 20.9603 0.355078 20.0219 0.0966797C18.3209 -0.375 11.5007 -0.375 11.5007 -0.375C11.5007 -0.375 4.6806 -0.375 2.97956 0.0966797C2.04119 0.355078 1.30247 1.11797 1.05091 2.09004C0.595703 3.84961 0.595703 7.51641 0.595703 7.51641C0.595703 7.51641 0.595703 11.1832 1.05091 12.9428C1.30247 13.9148 2.04119 14.6449 2.97956 14.9033C4.6806 15.375 11.5007 15.375 11.5007 15.375C11.5007 15.375 18.3209 15.375 20.0219 14.9033C20.9603 14.6449 21.699 13.9107 21.9506 12.9428C22.4058 11.1832 22.4058 7.51641 22.4058 7.51641C22.4058 7.51641 22.4058 3.84961 21.9506 2.09004ZM9.27261 10.8469V4.18594L14.9707 7.51641L9.27261 10.8469Z" fill="#C2DC54"/>
</svg>
